<mxfile host="app.diagrams.net" modified="2020-12-07T12:46:02.591Z" agent="5.0 (Windows NT 10.0; Win64; x64) AppleWebKit/537.36 (KHTML, like Gecko) Chrome/87.0.4280.88 Safari/537.36" etag="aYvRiTWqUMab536Qxwke" version="13.11.0" type="github">
  <diagram id="ADYIVZOctjIrK0HK21Do" name="Page-1">
    <mxGraphModel dx="1422" dy="794" grid="1" gridSize="10" guides="1" tooltips="1" connect="1" arrows="1" fold="1" page="1" pageScale="1" pageWidth="1169" pageHeight="827" math="0" shadow="0">
      <root>
        <mxCell id="0" />
        <mxCell id="1" parent="0" />
        <mxCell id="1_Xhng7Aels9c49zx2y_-23" value="Start" style="strokeWidth=2;html=1;shape=mxgraph.flowchart.start_1;whiteSpace=wrap;fillColor=#dae8fc;strokeColor=#6c8ebf;" parent="1" vertex="1">
          <mxGeometry x="180" y="50" width="100" height="60" as="geometry" />
        </mxCell>
        <mxCell id="1_Xhng7Aels9c49zx2y_-35" value="Propulsion Data Process Flow" style="swimlane;html=1;childLayout=stackLayout;resizeParent=1;resizeParentMax=0;horizontal=1;startSize=20;horizontalStack=0;" parent="1" vertex="1">
          <mxGeometry x="130" y="120" width="840" height="600" as="geometry" />
        </mxCell>
        <mxCell id="1_Xhng7Aels9c49zx2y_-36" value="Vessel Data Team" style="swimlane;html=1;startSize=20;horizontal=0;fillColor=#ffe6cc;strokeColor=#d79b00;" parent="1_Xhng7Aels9c49zx2y_-35" vertex="1">
          <mxGeometry y="20" width="840" height="430" as="geometry" />
        </mxCell>
        <mxCell id="1_Xhng7Aels9c49zx2y_-1" value="Review data sources" style="rounded=1;whiteSpace=wrap;html=1;absoluteArcSize=1;arcSize=14;strokeWidth=2;" parent="1_Xhng7Aels9c49zx2y_-36" vertex="1">
          <mxGeometry x="50" y="20" width="100" height="100" as="geometry" />
        </mxCell>
        <mxCell id="1_Xhng7Aels9c49zx2y_-28" value="Define data items to use" style="rounded=1;whiteSpace=wrap;html=1;absoluteArcSize=1;arcSize=14;strokeWidth=2;" parent="1_Xhng7Aels9c49zx2y_-36" vertex="1">
          <mxGeometry x="210" y="20" width="100" height="100" as="geometry" />
        </mxCell>
        <mxCell id="1_Xhng7Aels9c49zx2y_-32" value="Create dictionaries for the different data values" style="rounded=1;whiteSpace=wrap;html=1;absoluteArcSize=1;arcSize=14;strokeWidth=2;" parent="1_Xhng7Aels9c49zx2y_-36" vertex="1">
          <mxGeometry x="360" y="20" width="100" height="100" as="geometry" />
        </mxCell>
        <mxCell id="1_Xhng7Aels9c49zx2y_-47" style="edgeStyle=orthogonalEdgeStyle;rounded=0;orthogonalLoop=1;jettySize=auto;html=1;exitX=1;exitY=0.5;exitDx=0;exitDy=0;entryX=0;entryY=0.5;entryDx=0;entryDy=0;strokeWidth=2;" parent="1_Xhng7Aels9c49zx2y_-36" source="1_Xhng7Aels9c49zx2y_-29" target="1_Xhng7Aels9c49zx2y_-31" edge="1">
          <mxGeometry relative="1" as="geometry" />
        </mxCell>
        <mxCell id="1_Xhng7Aels9c49zx2y_-29" value="Clean data" style="rounded=1;whiteSpace=wrap;html=1;absoluteArcSize=1;arcSize=14;strokeWidth=2;fillColor=#ffe6cc;strokeColor=#d79b00;" parent="1_Xhng7Aels9c49zx2y_-36" vertex="1">
          <mxGeometry x="520" y="20" width="100" height="100" as="geometry" />
        </mxCell>
        <mxCell id="1_Xhng7Aels9c49zx2y_-48" style="edgeStyle=orthogonalEdgeStyle;rounded=0;orthogonalLoop=1;jettySize=auto;html=1;exitX=0.5;exitY=1;exitDx=0;exitDy=0;entryX=0.5;entryY=0;entryDx=0;entryDy=0;strokeWidth=2;" parent="1_Xhng7Aels9c49zx2y_-36" source="1_Xhng7Aels9c49zx2y_-31" target="1_Xhng7Aels9c49zx2y_-34" edge="1">
          <mxGeometry relative="1" as="geometry" />
        </mxCell>
        <mxCell id="1_Xhng7Aels9c49zx2y_-31" value="Map manufacturers to company IDs" style="rounded=1;whiteSpace=wrap;html=1;absoluteArcSize=1;arcSize=14;strokeWidth=2;fillColor=#ffe6cc;strokeColor=#d79b00;" parent="1_Xhng7Aels9c49zx2y_-36" vertex="1">
          <mxGeometry x="680" y="20" width="100" height="100" as="geometry" />
        </mxCell>
        <mxCell id="1_Xhng7Aels9c49zx2y_-49" style="edgeStyle=orthogonalEdgeStyle;rounded=0;orthogonalLoop=1;jettySize=auto;html=1;exitX=0;exitY=0.5;exitDx=0;exitDy=0;entryX=1;entryY=0.5;entryDx=0;entryDy=0;strokeWidth=2;" parent="1_Xhng7Aels9c49zx2y_-36" source="1_Xhng7Aels9c49zx2y_-34" target="1_Xhng7Aels9c49zx2y_-39" edge="1">
          <mxGeometry relative="1" as="geometry" />
        </mxCell>
        <mxCell id="1_Xhng7Aels9c49zx2y_-34" value="Create new companies" style="rounded=1;whiteSpace=wrap;html=1;absoluteArcSize=1;arcSize=14;strokeWidth=2;fillColor=#ffe6cc;strokeColor=#d79b00;" parent="1_Xhng7Aels9c49zx2y_-36" vertex="1">
          <mxGeometry x="680" y="160" width="100" height="100" as="geometry" />
        </mxCell>
        <mxCell id="1_Xhng7Aels9c49zx2y_-51" style="edgeStyle=orthogonalEdgeStyle;rounded=0;orthogonalLoop=1;jettySize=auto;html=1;exitX=0;exitY=0.5;exitDx=0;exitDy=0;strokeWidth=2;" parent="1_Xhng7Aels9c49zx2y_-36" source="1_Xhng7Aels9c49zx2y_-30" target="1_Xhng7Aels9c49zx2y_-33" edge="1">
          <mxGeometry relative="1" as="geometry" />
        </mxCell>
        <mxCell id="1_Xhng7Aels9c49zx2y_-30" value="&lt;br&gt;Standardise &lt;br&gt;data" style="rounded=1;whiteSpace=wrap;html=1;absoluteArcSize=1;arcSize=14;strokeWidth=2;fillColor=#ffe6cc;strokeColor=#d79b00;" parent="1_Xhng7Aels9c49zx2y_-36" vertex="1">
          <mxGeometry x="360" y="160" width="100" height="100" as="geometry" />
        </mxCell>
        <mxCell id="1_Xhng7Aels9c49zx2y_-33" value="Manually review and remove duplicate values" style="rounded=1;whiteSpace=wrap;html=1;absoluteArcSize=1;arcSize=14;strokeWidth=2;fillColor=#ffe6cc;strokeColor=#d79b00;" parent="1_Xhng7Aels9c49zx2y_-36" vertex="1">
          <mxGeometry x="210" y="160" width="100" height="100" as="geometry" />
        </mxCell>
        <mxCell id="1_Xhng7Aels9c49zx2y_-50" style="edgeStyle=orthogonalEdgeStyle;rounded=0;orthogonalLoop=1;jettySize=auto;html=1;exitX=0;exitY=0.5;exitDx=0;exitDy=0;entryX=1;entryY=0.5;entryDx=0;entryDy=0;strokeWidth=2;" parent="1_Xhng7Aels9c49zx2y_-36" source="1_Xhng7Aels9c49zx2y_-39" target="1_Xhng7Aels9c49zx2y_-30" edge="1">
          <mxGeometry relative="1" as="geometry" />
        </mxCell>
        <mxCell id="1_Xhng7Aels9c49zx2y_-39" value="Match records with &lt;br&gt;LLI vessel ID" style="rounded=1;whiteSpace=wrap;html=1;absoluteArcSize=1;arcSize=14;strokeWidth=2;fillColor=#ffe6cc;strokeColor=#d79b00;" parent="1_Xhng7Aels9c49zx2y_-36" vertex="1">
          <mxGeometry x="520" y="160" width="100" height="100" as="geometry" />
        </mxCell>
        <mxCell id="1_Xhng7Aels9c49zx2y_-25" value="Database Structure&lt;br&gt;Sign Off" style="rounded=1;whiteSpace=wrap;html=1;absoluteArcSize=1;arcSize=14;strokeWidth=2;fillColor=#ffe6cc;strokeColor=#d79b00;" parent="1_Xhng7Aels9c49zx2y_-36" vertex="1">
          <mxGeometry x="360" y="302" width="100" height="100" as="geometry" />
        </mxCell>
        <mxCell id="1_Xhng7Aels9c49zx2y_-27" value="Data Load Sign Off" style="rounded=1;whiteSpace=wrap;html=1;absoluteArcSize=1;arcSize=14;strokeWidth=2;fillColor=#ffe6cc;strokeColor=#d79b00;" parent="1_Xhng7Aels9c49zx2y_-36" vertex="1">
          <mxGeometry x="680" y="302" width="100" height="100" as="geometry" />
        </mxCell>
        <mxCell id="1_Xhng7Aels9c49zx2y_-44" style="edgeStyle=orthogonalEdgeStyle;rounded=0;orthogonalLoop=1;jettySize=auto;html=1;exitX=1;exitY=0.5;exitDx=0;exitDy=0;entryX=0;entryY=0.5;entryDx=0;entryDy=0;strokeWidth=2;" parent="1_Xhng7Aels9c49zx2y_-36" source="1_Xhng7Aels9c49zx2y_-40" target="1_Xhng7Aels9c49zx2y_-41" edge="1">
          <mxGeometry relative="1" as="geometry" />
        </mxCell>
        <mxCell id="1_Xhng7Aels9c49zx2y_-40" value="Review data sources" style="rounded=1;whiteSpace=wrap;html=1;absoluteArcSize=1;arcSize=14;strokeWidth=2;fillColor=#ffe6cc;strokeColor=#d79b00;" parent="1_Xhng7Aels9c49zx2y_-36" vertex="1">
          <mxGeometry x="50" y="20" width="100" height="100" as="geometry" />
        </mxCell>
        <mxCell id="1_Xhng7Aels9c49zx2y_-45" style="edgeStyle=orthogonalEdgeStyle;rounded=0;orthogonalLoop=1;jettySize=auto;html=1;exitX=1;exitY=0.5;exitDx=0;exitDy=0;entryX=0;entryY=0.5;entryDx=0;entryDy=0;strokeWidth=2;" parent="1_Xhng7Aels9c49zx2y_-36" source="1_Xhng7Aels9c49zx2y_-41" target="1_Xhng7Aels9c49zx2y_-42" edge="1">
          <mxGeometry relative="1" as="geometry" />
        </mxCell>
        <mxCell id="1_Xhng7Aels9c49zx2y_-41" value="Define data items to use" style="rounded=1;whiteSpace=wrap;html=1;absoluteArcSize=1;arcSize=14;strokeWidth=2;fillColor=#ffe6cc;strokeColor=#d79b00;" parent="1_Xhng7Aels9c49zx2y_-36" vertex="1">
          <mxGeometry x="210" y="20" width="100" height="100" as="geometry" />
        </mxCell>
        <mxCell id="1_Xhng7Aels9c49zx2y_-46" style="edgeStyle=orthogonalEdgeStyle;rounded=0;orthogonalLoop=1;jettySize=auto;html=1;exitX=1;exitY=0.5;exitDx=0;exitDy=0;entryX=0;entryY=0.5;entryDx=0;entryDy=0;strokeWidth=2;" parent="1_Xhng7Aels9c49zx2y_-36" source="1_Xhng7Aels9c49zx2y_-42" target="1_Xhng7Aels9c49zx2y_-29" edge="1">
          <mxGeometry relative="1" as="geometry" />
        </mxCell>
        <mxCell id="1_Xhng7Aels9c49zx2y_-42" value="Create dictionaries for the different data values" style="rounded=1;whiteSpace=wrap;html=1;absoluteArcSize=1;arcSize=14;strokeWidth=2;fillColor=#ffe6cc;strokeColor=#d79b00;" parent="1_Xhng7Aels9c49zx2y_-36" vertex="1">
          <mxGeometry x="360" y="20" width="100" height="100" as="geometry" />
        </mxCell>
        <mxCell id="Op5uu5RZsLFFfxJyzM06-1" value="" style="shape=image;html=1;verticalAlign=top;verticalLabelPosition=bottom;labelBackgroundColor=#ffffff;imageAspect=0;aspect=fixed;image=https://cdn4.iconfinder.com/data/icons/logos-and-brands/512/267_Python_logo-128.png" parent="1_Xhng7Aels9c49zx2y_-36" vertex="1">
          <mxGeometry x="555" y="30" width="30" height="30" as="geometry" />
        </mxCell>
        <mxCell id="Op5uu5RZsLFFfxJyzM06-2" value="" style="shape=image;html=1;verticalAlign=top;verticalLabelPosition=bottom;labelBackgroundColor=#ffffff;imageAspect=0;aspect=fixed;image=https://cdn4.iconfinder.com/data/icons/logos-and-brands/512/267_Python_logo-128.png" parent="1_Xhng7Aels9c49zx2y_-36" vertex="1">
          <mxGeometry x="395" y="170" width="30" height="30" as="geometry" />
        </mxCell>
        <mxCell id="1_Xhng7Aels9c49zx2y_-37" value="Data Services" style="swimlane;html=1;startSize=20;horizontal=0;fillColor=#d5e8d4;strokeColor=#82b366;" parent="1_Xhng7Aels9c49zx2y_-35" vertex="1">
          <mxGeometry y="450" width="840" height="150" as="geometry" />
        </mxCell>
        <mxCell id="1_Xhng7Aels9c49zx2y_-22" value="Define Database Structure" style="rounded=1;whiteSpace=wrap;html=1;absoluteArcSize=1;arcSize=14;strokeWidth=2;fillColor=#d5e8d4;strokeColor=#82b366;" parent="1_Xhng7Aels9c49zx2y_-37" vertex="1">
          <mxGeometry x="210" y="25" width="100" height="100" as="geometry" />
        </mxCell>
        <mxCell id="1_Xhng7Aels9c49zx2y_-26" value="Data Load" style="rounded=1;whiteSpace=wrap;html=1;absoluteArcSize=1;arcSize=14;strokeWidth=2;fillColor=#d5e8d4;strokeColor=#82b366;" parent="1_Xhng7Aels9c49zx2y_-37" vertex="1">
          <mxGeometry x="520" y="25" width="100" height="100" as="geometry" />
        </mxCell>
        <mxCell id="1_Xhng7Aels9c49zx2y_-56" style="edgeStyle=orthogonalEdgeStyle;rounded=0;orthogonalLoop=1;jettySize=auto;html=1;exitX=0;exitY=0.5;exitDx=0;exitDy=0;entryX=0.01;entryY=0.58;entryDx=0;entryDy=0;entryPerimeter=0;strokeWidth=2;" parent="1_Xhng7Aels9c49zx2y_-35" source="1_Xhng7Aels9c49zx2y_-33" target="1_Xhng7Aels9c49zx2y_-22" edge="1">
          <mxGeometry relative="1" as="geometry">
            <Array as="points">
              <mxPoint x="170" y="230" />
              <mxPoint x="170" y="533" />
            </Array>
          </mxGeometry>
        </mxCell>
        <mxCell id="1_Xhng7Aels9c49zx2y_-57" style="edgeStyle=orthogonalEdgeStyle;rounded=0;orthogonalLoop=1;jettySize=auto;html=1;exitX=0.5;exitY=0;exitDx=0;exitDy=0;entryX=0;entryY=0.5;entryDx=0;entryDy=0;strokeWidth=2;" parent="1_Xhng7Aels9c49zx2y_-35" source="1_Xhng7Aels9c49zx2y_-22" target="1_Xhng7Aels9c49zx2y_-25" edge="1">
          <mxGeometry relative="1" as="geometry" />
        </mxCell>
        <mxCell id="1_Xhng7Aels9c49zx2y_-59" style="edgeStyle=orthogonalEdgeStyle;rounded=0;orthogonalLoop=1;jettySize=auto;html=1;exitX=0.5;exitY=1;exitDx=0;exitDy=0;entryX=0;entryY=0.5;entryDx=0;entryDy=0;strokeWidth=2;" parent="1_Xhng7Aels9c49zx2y_-35" source="1_Xhng7Aels9c49zx2y_-25" target="1_Xhng7Aels9c49zx2y_-26" edge="1">
          <mxGeometry relative="1" as="geometry" />
        </mxCell>
        <mxCell id="1_Xhng7Aels9c49zx2y_-60" style="edgeStyle=orthogonalEdgeStyle;rounded=0;orthogonalLoop=1;jettySize=auto;html=1;exitX=0.5;exitY=0;exitDx=0;exitDy=0;entryX=0;entryY=0.5;entryDx=0;entryDy=0;strokeWidth=2;" parent="1_Xhng7Aels9c49zx2y_-35" source="1_Xhng7Aels9c49zx2y_-26" target="1_Xhng7Aels9c49zx2y_-27" edge="1">
          <mxGeometry relative="1" as="geometry" />
        </mxCell>
        <mxCell id="1_Xhng7Aels9c49zx2y_-43" value="End" style="strokeWidth=2;html=1;shape=mxgraph.flowchart.start_1;whiteSpace=wrap;fillColor=#dae8fc;strokeColor=#6c8ebf;" parent="1" vertex="1">
          <mxGeometry x="810" y="740" width="100" height="60" as="geometry" />
        </mxCell>
        <mxCell id="1_Xhng7Aels9c49zx2y_-62" style="edgeStyle=orthogonalEdgeStyle;rounded=0;orthogonalLoop=1;jettySize=auto;html=1;exitX=0.5;exitY=1;exitDx=0;exitDy=0;entryX=0.5;entryY=0;entryDx=0;entryDy=0;entryPerimeter=0;strokeWidth=2;" parent="1" source="1_Xhng7Aels9c49zx2y_-27" target="1_Xhng7Aels9c49zx2y_-43" edge="1">
          <mxGeometry relative="1" as="geometry" />
        </mxCell>
        <mxCell id="1_Xhng7Aels9c49zx2y_-63" style="edgeStyle=orthogonalEdgeStyle;rounded=0;orthogonalLoop=1;jettySize=auto;html=1;exitX=0.5;exitY=1;exitDx=0;exitDy=0;exitPerimeter=0;strokeWidth=2;" parent="1" source="1_Xhng7Aels9c49zx2y_-23" target="1_Xhng7Aels9c49zx2y_-40" edge="1">
          <mxGeometry relative="1" as="geometry" />
        </mxCell>
      </root>
    </mxGraphModel>
  </diagram>
</mxfile>
